<svg width="51" height="51" viewBox="0 0 51 51" fill="none" xmlns="http://www.w3.org/2000/svg">
<path fill-rule="evenodd" clip-rule="evenodd" d="M25.6433 46.3334C37.1492 46.3334 46.4766 37.006 46.4766 25.5C46.4766 13.9941 37.1492 4.66669 25.6433 4.66669C14.1373 4.66669 4.80994 13.9941 4.80994 25.5C4.80994 37.006 14.1373 46.3334 25.6433 46.3334ZM20.3717 13.9785C20.9819 13.3683 21.9713 13.3683 22.5815 13.9785C23.1917 14.5887 23.1917 15.578 22.5815 16.1882L21.0821 17.6875H27.7266C32.0413 17.6875 35.5391 21.1853 35.5391 25.5C35.5391 29.8147 32.0413 33.3125 27.7266 33.3125H17.3099C16.447 33.3125 15.7474 32.613 15.7474 31.75C15.7474 30.8871 16.447 30.1875 17.3099 30.1875H27.7266C30.3154 30.1875 32.4141 28.0889 32.4141 25.5C32.4141 22.9112 30.3154 20.8125 27.7266 20.8125H21.0821L22.5815 22.3118C23.1917 22.922 23.1917 23.9113 22.5815 24.5215C21.9713 25.1317 20.9819 25.1317 20.3717 24.5215L16.2051 20.3549C15.5949 19.7447 15.5949 18.7554 16.2051 18.1452L20.3717 13.9785Z" fill="white"/>
</svg>
