<svg width="48" height="48" viewBox="0 0 48 48" fill="none" xmlns="http://www.w3.org/2000/svg">
<path opacity="0.4" d="M34 24C34 26.2091 32.2091 28 30 28H14V34C14 36.2091 15.7909 38 18 38H38C40.2091 38 42 36.2091 42 34V18C42 15.7908 40.2091 14 38 14H34V24Z" fill="white"/>
<path d="M7.5 30H30.2144C32.3052 30 34.0002 28.2091 34.0002 26V10C34.0002 7.79086 32.3052 6 30.2144 6H7.5V30Z" fill="white"/>
<path opacity="0.4" fill-rule="evenodd" clip-rule="evenodd" d="M6 2.5C6.82843 2.5 7.5 3.17157 7.5 4V44C7.5 44.8284 6.82843 45.5 6 45.5C5.17157 45.5 4.5 44.8284 4.5 44V4C4.5 3.17157 5.17157 2.5 6 2.5Z" fill="white"/>
</svg>
