<svg width="51" height="51" viewBox="0 0 51 51" fill="none" xmlns="http://www.w3.org/2000/svg">
<path fill-rule="evenodd" clip-rule="evenodd" d="M4.80994 6.74996V13C4.80994 14.1506 5.74268 15.0833 6.89327 15.0833H8.45577V35.9166H6.89327C5.74268 35.9166 4.80994 36.8494 4.80994 38V44.25C4.80994 45.4006 5.74268 46.3333 6.89327 46.3333H13.1433C14.2939 46.3333 15.2266 45.4006 15.2266 44.25V42.6875H36.0599V44.25C36.0599 45.4006 36.9927 46.3333 38.1433 46.3333H44.3933C45.5439 46.3333 46.4766 45.4006 46.4766 44.25V38C46.4766 36.8494 45.5439 35.9166 44.3933 35.9166H42.8308V15.0833H44.3933C45.5439 15.0833 46.4766 14.1506 46.4766 13V6.74996C46.4766 5.59937 45.5439 4.66663 44.3933 4.66663H38.1433C36.9927 4.66663 36.0599 5.59937 36.0599 6.74996V8.31246H15.2266V6.74996C15.2266 5.59937 14.2939 4.66663 13.1433 4.66663H6.89327C5.74268 4.66663 4.80994 5.59937 4.80994 6.74996ZM11.5808 35.9166V15.0833H13.1433C14.2939 15.0833 15.2266 14.1506 15.2266 13V11.4375H36.0599V13C36.0599 14.1506 36.9927 15.0833 38.1433 15.0833H39.7058V35.9166H38.1433C36.9927 35.9166 36.0599 36.8494 36.0599 38V39.5625H15.2266V38C15.2266 36.8494 14.2939 35.9166 13.1433 35.9166H11.5808ZM25.6432 15.6041C26.2682 15.6041 26.8331 15.9766 27.0793 16.5511L33.3293 31.1345C33.6693 31.9276 33.3018 32.8462 32.5087 33.1861C31.7155 33.5261 30.7969 33.1586 30.457 32.3655L29.0771 29.1458H22.2092L20.8293 32.3655C20.4894 33.1586 19.5708 33.5261 18.7777 33.1861C17.9845 32.8462 17.6171 31.9276 17.957 31.1345L24.207 16.5511C24.4532 15.9766 25.0181 15.6041 25.6432 15.6041ZM25.6432 21.1332L27.7379 26.0208H23.5485L25.6432 21.1332Z" fill="white"/>
</svg>
