<svg width="26" height="29" viewBox="0 0 26 29" fill="none" xmlns="http://www.w3.org/2000/svg">
<g filter="url(#filter0_d_378_2337)">
<path d="M17 5C16.731 5 16.4971 4.90058 16.2982 4.70175C16.0994 4.50292 16 4.26901 16 4C16 3.7193 16.0994 3.48538 16.2982 3.29825C16.4971 3.09942 16.731 3 17 3H18C18.7251 3 19.3918 3.18129 20 3.54386C20.6199 3.89474 21.1053 4.38012 21.4561 5C21.8187 5.60819 22 6.27485 22 7V17C22 17.7135 21.8187 18.3801 21.4561 19C21.1053 19.6082 20.6199 20.0936 20 20.4561C19.3918 20.8187 18.7251 21 18 21H17C16.731 21 16.4971 20.9006 16.2982 20.7018C16.0994 20.5029 16 20.269 16 20C16 19.7193 16.0994 19.4854 16.2982 19.2982C16.4971 19.0994 16.731 19 17 19H18C18.4094 19 18.7661 18.9181 19.0702 18.7544C19.3743 18.5906 19.6023 18.3567 19.7544 18.0526C19.9181 17.7485 20 17.3977 20 17V7C20 6.59064 19.9181 6.23392 19.7544 5.92982C19.6023 5.62573 19.3743 5.39766 19.0702 5.24561C18.7661 5.08187 18.4094 5 18 5H17ZM13.7018 16.7018C13.5263 16.9006 13.2924 17 13 17C12.731 17 12.4971 16.9006 12.2982 16.7018C12.0994 16.5029 12 16.269 12 16C12 15.7076 12.0994 15.4737 12.2982 15.2982L16.193 11.4035C16.2515 11.345 16.2924 11.4327 16.3158 11.6667C16.3392 11.8889 16.3392 12.117 16.3158 12.3509C16.2924 12.5731 16.2515 12.655 16.193 12.5965L12.2982 8.70175C12.0994 8.51462 12 8.2807 12 8C12 7.7193 12.0994 7.48538 12.2982 7.29824C12.4971 7.09942 12.731 7 13 7C13.2924 7 13.5263 7.09942 13.7018 7.29824L17.5965 11.193C17.8187 11.4035 17.9298 11.6725 17.9298 12C17.9298 12.3158 17.8187 12.5848 17.5965 12.807L13.7018 16.7018ZM17 11C17.2807 11 17.5146 11.0994 17.7018 11.2982C17.9006 11.4854 18 11.7193 18 12C18 12.269 17.9006 12.5029 17.7018 12.7018C17.5146 12.9006 17.2807 13 17 13H5C4.73099 13 4.49708 12.9006 4.29825 12.7018C4.09942 12.5029 4 12.269 4 12C4 11.7193 4.09942 11.4854 4.29825 11.2982C4.49708 11.0994 4.73099 11 5 11H17Z" fill="white"/>
</g>
<defs>
<filter id="filter0_d_378_2337" x="-3" y="0" width="32" height="32" filterUnits="userSpaceOnUse" color-interpolation-filters="sRGB">
<feFlood flood-opacity="0" result="BackgroundImageFix"/>
<feColorMatrix in="SourceAlpha" type="matrix" values="0 0 0 0 0 0 0 0 0 0 0 0 0 0 0 0 0 0 127 0" result="hardAlpha"/>
<feOffset dy="4"/>
<feGaussianBlur stdDeviation="2"/>
<feComposite in2="hardAlpha" operator="out"/>
<feColorMatrix type="matrix" values="0 0 0 0 0 0 0 0 0 0 0 0 0 0 0 0 0 0 0.25 0"/>
<feBlend mode="normal" in2="BackgroundImageFix" result="effect1_dropShadow_378_2337"/>
<feBlend mode="normal" in="SourceGraphic" in2="effect1_dropShadow_378_2337" result="shape"/>
</filter>
</defs>
</svg>
