<svg width="373" height="382" viewBox="0 0 373 382" fill="none" xmlns="http://www.w3.org/2000/svg">
<g filter="url(#filter0_d_1613_51195)">
<rect x="164" y="82" width="130" height="132" rx="24" fill="#F84440"/>
<path d="M231 199C262.48 199 288 175.271 288 146C288 116.729 262.48 93 231 93C199.52 93 174 116.729 174 146C174 154.011 175.911 161.606 179.333 168.414L174.239 197.627C174.122 198.301 174.701 198.891 175.378 198.786L206.66 193.939C214.041 197.185 222.293 199 231 199Z" fill="white"/>
<path fill-rule="evenodd" clip-rule="evenodd" d="M189 119.1V128.4C189 130.112 190.858 131.5 193.15 131.5H196.263V162.5H193.15C190.858 162.5 189 163.888 189 165.6V174.9C189 176.612 190.858 178 193.15 178H205.6C207.892 178 209.75 176.612 209.75 174.9V172.575H251.25V174.9C251.25 176.612 253.108 178 255.4 178H267.85C270.142 178 272 176.612 272 174.9V165.6C272 163.888 270.142 162.5 267.85 162.5H264.738V131.5H267.85C270.142 131.5 272 130.112 272 128.4V119.1C272 117.388 270.142 116 267.85 116H255.4C253.108 116 251.25 117.388 251.25 119.1V121.425H209.75V119.1C209.75 117.388 207.892 116 205.6 116H193.15C190.858 116 189 117.388 189 119.1ZM202.488 162.5V131.5H205.6C207.892 131.5 209.75 130.112 209.75 128.4V126.075H251.25V128.4C251.25 130.112 253.108 131.5 255.4 131.5H258.513V162.5H255.4C253.108 162.5 251.25 163.888 251.25 165.6V167.925H209.75V165.6C209.75 163.888 207.892 162.5 205.6 162.5H202.488ZM231.123 131.5C232.368 131.5 233.494 132.054 233.984 132.909L246.434 154.609C247.111 155.789 246.379 157.156 244.799 157.662C243.219 158.168 241.39 157.621 240.712 156.441L237.964 151.65H224.283L221.534 156.441C220.857 157.621 219.027 158.168 217.447 157.662C215.867 157.156 215.135 155.789 215.812 154.609L228.262 132.909C228.753 132.054 229.878 131.5 231.123 131.5ZM231.123 139.727L235.296 147H226.951L231.123 139.727Z" fill="#F84440"/>
</g>
<defs>
<filter id="filter0_d_1613_51195" x="0" y="0" width="380" height="382" filterUnits="userSpaceOnUse" color-interpolation-filters="sRGB">
<feFlood flood-opacity="0" result="BackgroundImageFix"/>
<feColorMatrix in="SourceAlpha" type="matrix" values="0 0 0 0 0 0 0 0 0 0 0 0 0 0 0 0 0 0 127 0" result="hardAlpha"/>
<feMorphology radius="19" operator="erode" in="SourceAlpha" result="effect1_dropShadow_1613_51195"/>
<feOffset dx="-39" dy="43"/>
<feGaussianBlur stdDeviation="72"/>
<feComposite in2="hardAlpha" operator="out"/>
<feColorMatrix type="matrix" values="0 0 0 0 0.972549 0 0 0 0 0.266667 0 0 0 0 0.25098 0 0 0 0.45 0"/>
<feBlend mode="normal" in2="BackgroundImageFix" result="effect1_dropShadow_1613_51195"/>
<feBlend mode="normal" in="SourceGraphic" in2="effect1_dropShadow_1613_51195" result="shape"/>
</filter>
</defs>
</svg>
