<svg width="32" height="32" viewBox="0 0 32 32" fill="none" xmlns="http://www.w3.org/2000/svg">
<path fill-rule="evenodd" clip-rule="evenodd" d="M14.5796 3.97986H17.0953C18.4847 3.97986 19.611 5.04181 19.611 6.35179C19.611 7.85087 21.2149 8.80395 22.5316 8.08722L22.6653 8.01443C23.8685 7.35944 25.4071 7.74814 26.1018 8.88262L27.3596 10.9368C28.0543 12.0712 27.642 13.5219 26.4388 14.1769C25.1216 14.8939 25.1216 16.7851 26.4388 17.5021C27.642 18.1571 28.0543 19.6078 27.3596 20.7422L26.1018 22.7964C25.4071 23.9309 23.8685 24.3196 22.6653 23.6646L22.5316 23.5918C21.2149 22.8751 19.611 23.8281 19.611 25.3272C19.611 26.6372 18.4847 27.6992 17.0953 27.6992H14.5796C13.1902 27.6992 12.0639 26.6372 12.0639 25.3272C12.0639 23.8281 10.46 22.8751 9.14332 23.5918L9.00959 23.6646C7.80635 24.3196 6.26778 23.9309 5.57309 22.7964L4.31524 20.7423C3.62055 19.6078 4.03281 18.1571 5.23605 17.5021C6.55332 16.7851 6.55332 14.8939 5.23605 14.1769C4.03281 13.5219 3.62055 12.0712 4.31524 10.9367L5.57309 8.8826C6.26778 7.74812 7.80635 7.35942 9.00959 8.01441L9.14332 8.08721C10.46 8.80393 12.0639 7.85086 12.0639 6.35179C12.0639 5.04181 13.1902 3.97986 14.5796 3.97986ZM15.8374 19.7927C18.0207 19.7927 19.7907 18.0228 19.7907 15.8395C19.7907 13.6562 18.0207 11.8863 15.8374 11.8863C13.6541 11.8863 11.8842 13.6562 11.8842 15.8395C11.8842 18.0228 13.6541 19.7927 15.8374 19.7927Z" fill="white"/>
</svg>
