<svg width="48" height="48" viewBox="0 0 48 48" fill="none" xmlns="http://www.w3.org/2000/svg">
<path opacity="0.4" d="M19.4488 44H28.5509C32.748 44 36.2315 40.7564 36.5306 36.57L37.9767 12.3241C33.7241 10.8322 28.9896 10 23.9999 10C19.0101 10 14.2756 10.8322 10.023 12.3241L11.4691 36.57C11.7682 40.7564 15.2517 44 19.4488 44Z" fill="white"/>
<path fill-rule="evenodd" clip-rule="evenodd" d="M29.4998 8.8313V8C29.4998 4.96243 27.0374 2.5 23.9998 2.5C20.9623 2.5 18.4999 4.96243 18.4999 8V8.8313C13.7299 9.4118 9.2737 10.7359 5.34274 12.6516C4.59804 13.0145 4.28853 13.9124 4.65144 14.6571C5.01435 15.4018 5.91226 15.7113 6.65696 15.3484C11.6402 12.92 17.5913 11.5 23.9998 11.5C30.4084 11.5 36.3595 12.92 41.3427 15.3484C42.0874 15.7113 42.9853 15.4018 43.3483 14.6571C43.7112 13.9124 43.4017 13.0145 42.657 12.6516C38.726 10.7359 34.2698 9.4118 29.4998 8.8313Z" fill="white"/>
<path fill-rule="evenodd" clip-rule="evenodd" d="M20 18.5C20.8284 18.5 21.5 19.1716 21.5 20V32C21.5 32.8284 20.8284 33.5 20 33.5C19.1716 33.5 18.5 32.8284 18.5 32V20C18.5 19.1716 19.1716 18.5 20 18.5Z" fill="white"/>
<path fill-rule="evenodd" clip-rule="evenodd" d="M28 18.5C28.8284 18.5 29.5 19.1716 29.5 20V32C29.5 32.8284 28.8284 33.5 28 33.5C27.1716 33.5 26.5 32.8284 26.5 32V20C26.5 19.1716 27.1716 18.5 28 18.5Z" fill="white"/>
</svg>
