<svg width="51" height="50" viewBox="0 0 51 50" fill="none" xmlns="http://www.w3.org/2000/svg">
<path fill-rule="evenodd" clip-rule="evenodd" d="M21.1219 22.9167C25.7243 22.9167 29.4552 19.1857 29.4552 14.5833C29.4552 9.98096 25.7243 6.25 21.1219 6.25C16.5195 6.25 12.7886 9.98096 12.7886 14.5833C12.7886 19.1857 16.5195 22.9167 21.1219 22.9167ZM21.1219 43.75C29.1761 43.75 35.7052 40.019 35.7052 35.4167C35.7052 30.8143 29.1761 27.0833 21.1219 27.0833C13.0678 27.0833 6.53857 30.8143 6.53857 35.4167C6.53857 40.019 13.0678 43.75 21.1219 43.75ZM29.3749 22.5322C31.3597 20.4719 32.5802 17.6702 32.5802 14.5835C32.5802 13.1156 32.3042 11.7122 31.8012 10.4223C35.1311 10.56 37.7884 13.3031 37.7884 16.6668C37.7884 20.1186 34.9902 22.9168 31.5384 22.9168C30.7779 22.9168 30.049 22.781 29.3749 22.5322ZM38.83 35.4165C38.83 36.539 38.5806 37.6239 38.1156 38.649C41.6707 37.5471 44.0384 35.5784 44.0384 33.3332C44.0384 30.1953 39.4134 27.5975 33.3859 27.151C36.7415 29.2361 38.83 32.1685 38.83 35.4165Z" fill="white"/>
</svg>
