<svg width="48" height="48" viewBox="0 0 48 48" fill="none" xmlns="http://www.w3.org/2000/svg">
<path fill-rule="evenodd" clip-rule="evenodd" d="M44 24C44 35.0457 35.0457 44 24 44C12.9543 44 4 35.0457 4 24C4 12.9543 12.9543 4 24 4C35.0457 4 44 12.9543 44 24ZM22 34C22 32.8954 22.8954 32 24 32C25.1046 32 26 32.8954 26 34C26 35.1046 25.1046 36 24 36C22.8954 36 22 35.1046 22 34ZM22.5 28C22.5 28.8284 23.1716 29.5 24 29.5C24.8284 29.5 25.5 28.8284 25.5 28L25.5 14C25.5 13.1716 24.8284 12.5 24 12.5C23.1716 12.5 22.5 13.1716 22.5 14L22.5 28Z" fill="white"/>
</svg>
