<svg width="160" height="160" viewBox="0 0 160 160" fill="none" xmlns="http://www.w3.org/2000/svg">
<path d="M93.3334 100V95C90.572 95 88.3334 97.2386 88.3334 100H93.3334ZM140.729 90.6249L137.956 86.4646H137.956L140.729 90.6249ZM133.385 95.5213L136.158 99.6816V99.6816L133.385 95.5213ZM98.3334 60C98.3334 57.2386 96.0948 55 93.3334 55C90.572 55 88.3334 57.2386 88.3334 60H98.3334ZM88.3334 73.3333C88.3334 76.0948 90.572 78.3333 93.3334 78.3333C96.0948 78.3333 98.3334 76.0948 98.3334 73.3333H88.3334ZM88.3334 30C88.3334 32.7614 90.572 35 93.3334 35C96.0948 35 98.3334 32.7614 98.3334 30H88.3334ZM98.3334 20C98.3334 17.2386 96.0948 15 93.3334 15C90.572 15 88.3334 17.2386 88.3334 20H98.3334ZM63.1312 43.5355C65.0838 45.4882 68.2496 45.4882 70.2022 43.5355C72.1549 41.5829 72.1549 38.4171 70.2022 36.4645L63.1312 43.5355ZM63.5356 29.7978C61.583 27.8452 58.4171 27.8452 56.4645 29.7978C54.5119 31.7504 54.5119 34.9162 56.4645 36.8689L63.5356 29.7978ZM116.465 36.4645C114.512 38.4171 114.512 41.5829 116.465 43.5355C118.417 45.4882 121.583 45.4882 123.536 43.5355L116.465 36.4645ZM130.202 36.8689C132.155 34.9162 132.155 31.7504 130.202 29.7978C128.25 27.8452 125.084 27.8452 123.131 29.7978L130.202 36.8689ZM61.6667 100C61.6667 104.602 57.9357 108.333 53.3334 108.333V118.333C63.4586 118.333 71.6667 110.125 71.6667 100H61.6667ZM53.3334 108.333C48.731 108.333 45 104.602 45 100H35C35 110.125 43.2082 118.333 53.3334 118.333V108.333ZM45 100C45 95.3976 48.731 91.6667 53.3334 91.6667V81.6667C43.2082 81.6667 35 89.8748 35 100H45ZM53.3334 91.6667C57.9357 91.6667 61.6667 95.3976 61.6667 100H71.6667C71.6667 89.8748 63.4586 81.6667 53.3334 81.6667V91.6667ZM53.3334 65H133.333V55H53.3334V65ZM88.3334 100C88.3334 119.33 72.6633 135 53.3334 135V145C78.1862 145 98.3334 124.853 98.3334 100H88.3334ZM53.3334 135C34.0034 135 18.3334 119.33 18.3334 100H8.33337C8.33337 124.853 28.4806 145 53.3334 145V135ZM18.3334 100C18.3334 80.67 34.0034 65 53.3334 65V55C28.4806 55 8.33337 75.1472 8.33337 100H18.3334ZM93.3334 105H118.593V95H93.3334V105ZM141.667 73.3333V79.5309H151.667V73.3333H141.667ZM137.956 86.4646L130.611 91.3611L136.158 99.6816L143.503 94.7851L137.956 86.4646ZM141.667 79.5309C141.667 82.3172 140.274 84.9191 137.956 86.4646L143.503 94.7851C148.603 91.3849 151.667 85.6607 151.667 79.5309H141.667ZM133.333 65C137.936 65 141.667 68.731 141.667 73.3333H151.667C151.667 63.2081 143.459 55 133.333 55V65ZM118.593 105C124.844 105 130.956 103.149 136.158 99.6816L130.611 91.3611C127.052 93.7338 122.87 95 118.593 95V105ZM88.3334 60V73.3333H98.3334V60H88.3334ZM98.3334 30V20H88.3334V30H98.3334ZM70.2022 36.4645L63.5356 29.7978L56.4645 36.8689L63.1312 43.5355L70.2022 36.4645ZM123.536 43.5355L130.202 36.8689L123.131 29.7978L116.465 36.4645L123.536 43.5355Z" fill="white"/>
</svg>
